<svg id="Layer_1" data-name="Layer 1" xmlns="http://www.w3.org/2000/svg" viewBox="0 0 31.15422 28.34249">
  <defs>
    <style>
      .cls-1 {
        fill: #245b99;
      }
    </style>
  </defs>
  <path class="cls-1" d="M30.9888,2.21838a2.17116,2.17116,0,0,0-2.22914-.16864h-.00141C27.85057,2.414,3.065,13.04524,2.056,13.47959c-.18352.06377-1.78629.6618-1.6212,1.9939a2.41039,2.41039,0,0,0,1.59285,1.75583l6.30127,2.15757c.418,1.39162,1.95918,6.52588,2.3,7.62274.21257.68376.559,1.58223,1.16629,1.76716a1.448,1.448,0,0,0,1.40579-.25154L17.05347,24.952l6.21907,4.85012.14809.08857a2.99437,2.99437,0,0,0,1.21306.2806,2.24451,2.24451,0,0,0,.85807-.16793,2.59976,2.59976,0,0,0,1.34344-1.37108L31.48055,4.4865A2.14076,2.14076,0,0,0,30.9888,2.21838ZM13.88619,20.24993l-2.1257,5.66851L9.6348,18.8328l16.297-12.0456Z" transform="translate(-0.42289 -1.82875)"/>
</svg>
