<svg id="Layer_1" data-name="Layer 1" xmlns="http://www.w3.org/2000/svg" viewBox="0 0 31.05766 25.23815">
  <defs>
    <style>
      .cls-1 {
        fill: #245b99;
      }
    </style>
  </defs>
  <path class="cls-1" d="M31.52883,6.36832a12.71935,12.71935,0,0,1-3.65989,1.00336A6.38233,6.38233,0,0,0,30.67,3.84677a12.77562,12.77562,0,0,1-4.0469,1.54685A6.3734,6.3734,0,0,0,15.60164,9.75228a6.44263,6.44263,0,0,0,.16484,1.45129,18.08844,18.08844,0,0,1-13.1333-6.658,6.38321,6.38321,0,0,0,1.97209,8.50708A6.3586,6.3586,0,0,1,1.7194,12.2559v.08a6.37252,6.37252,0,0,0,5.11118,6.24713,6.37394,6.37394,0,0,1-1.67944.22337A6.487,6.487,0,0,1,3.95308,18.693,6.37937,6.37937,0,0,0,9.90517,23.1185a12.77951,12.77951,0,0,1-7.91343,2.72819A12.80069,12.80069,0,0,1,.47117,25.7571a18.0386,18.0386,0,0,0,9.76726,2.862c11.72023,0,18.12742-9.70873,18.12742-18.12862q0-.41388-.01792-.82419A12.96565,12.96565,0,0,0,31.52883,6.36832Z" transform="translate(-0.47117 -3.38092)"/>
</svg>
