<svg id="Layer_1" data-name="Layer 1" xmlns="http://www.w3.org/2000/svg" viewBox="0 0 31.05766 26.28189">
  <defs>
    <style>
      .cls-1 {
        fill: #245b99;
      }
    </style>
  </defs>
  <path class="cls-1" d="M16,2.85906A73.74089,73.74089,0,0,0,4.50969,4.11191l-.01633.01866A4.766,4.766,0,0,0,.47117,8.83168V23.16832A4.7781,4.7781,0,0,0,4.505,27.87876l.00466.007A73.61,73.61,0,0,0,16,29.14094a73.61,73.61,0,0,0,11.49031-1.25518l.00233-.00233a4.77811,4.77811,0,0,0,4.03619-4.71511V8.83168A4.7781,4.7781,0,0,0,27.495,4.11891l-.00466-.007A73.74089,73.74089,0,0,0,16,2.85906Zm-3.58358,7.64309,9.55621,5.49668-9.55621,5.49669Z" transform="translate(-0.47117 -2.85906)"/>
</svg>
